<svg width="34" height="74" viewBox="0 0 34 74" fill="none" xmlns="http://www.w3.org/2000/svg">
<g clip-path="url(#clip0_10133_2122)">
<path fill-rule="evenodd" clip-rule="evenodd" d="M9.97895 1.20223C9.56725 2.83672 10.7688 6.55469 12.2249 8.15181C12.8632 8.85194 12.8743 8.91431 12.326 8.71678C11.8324 8.53939 11.7826 8.58325 12.0769 8.93672C12.3765 9.29605 12.1878 9.38799 11.0638 9.4299C8.44264 9.52769 4.09382 12.2555 4.78423 13.3688C5.09586 13.8711 7.2349 13.7801 8.97072 13.1908C9.80847 12.9062 11.2082 12.0336 12.0812 11.2512C12.9541 10.4689 13.7629 9.89644 13.8786 9.97896C13.994 10.0615 13.9516 9.96531 13.7837 9.7655C13.594 9.53906 13.6018 9.08066 13.8049 8.5498C14.4396 6.89127 13.2902 2.77921 11.7288 1.12263C10.8258 0.164867 10.2335 0.191833 9.97895 1.20223ZM1.05052 2.97609C0.635557 3.23762 0.662287 3.40656 1.24057 4.17849C2.255 5.53293 4.67731 6.86852 6.80494 7.24669C8.54825 7.55663 9.07796 7.69243 10.9865 8.31913C11.3451 8.43674 11.1759 8.28892 10.6104 7.99002C10.0451 7.69146 9.38992 7.0888 9.15489 6.65085C8.50848 5.44716 6.48353 3.9907 4.4814 3.28928C2.49165 2.5924 1.76473 2.5258 1.05052 2.97609ZM17.7847 5.12487C17.0907 6.18074 17.0911 9.78468 17.7854 11.6775C18.0641 12.4367 18.262 13.0735 18.2251 13.092C18.1883 13.1109 16.9111 13.1547 15.3872 13.1902C13.36 13.2369 12.2008 13.441 11.068 13.9501C8.17306 15.2515 9.43555 16.4705 13.4392 16.2395C15.4315 16.1248 16.2735 15.9072 17.5024 15.1895L18.0077 14.8943C18.6106 14.5422 19.3797 14.6774 19.8263 15.2142C20.252 15.7259 20.9108 16.6274 21.2906 17.2177C21.6703 17.8077 22.0553 18.2168 22.1459 18.1264C22.3288 17.9442 20.2351 14.9975 19.4778 14.3711C19.0564 14.0222 19.0658 13.8688 19.5554 13.1245C19.9727 12.49 20.1138 11.5735 20.1138 9.4991C20.1138 5.40881 18.9879 3.29448 17.7847 5.12487ZM23.4381 12.0024C22.9012 13.1629 22.7239 14.1622 22.7229 16.0316C22.7223 17.4608 22.5942 18.4393 22.4217 18.3334C22.2568 18.2323 22.2131 18.387 22.3249 18.6771C22.4921 19.1115 22.2861 19.078 21.1579 18.4867C19.4012 17.5663 14.7636 17.4413 13.9095 18.2912C13.4271 18.771 13.4274 18.8558 13.9122 19.3389C14.6192 20.0436 17.4529 20.8555 19.2056 20.8555C19.9854 20.8555 21.1328 20.6436 21.7548 20.3844C22.3957 20.1174 23.1345 20.3825 23.4596 20.996L23.5228 21.1154C23.8729 21.7765 24.166 22.2005 24.1741 22.0575C24.182 21.9149 23.957 21.3516 23.6741 20.8061C23.192 19.8776 23.2001 19.77 23.7989 19.1167C25.345 17.4292 26.2715 13.6024 25.6916 11.2993C25.3333 9.87662 24.2674 10.2093 23.4381 12.0024ZM28.8649 18.4091C27.8081 19.1469 26.2715 21.7889 25.6678 23.9051L25.5906 24.1758C25.379 24.9179 24.4518 25.1652 23.8987 24.627C22.4788 23.245 19.8641 22.155 17.9689 22.155C16.7905 22.155 16.6572 22.2333 16.7498 22.8714C16.992 24.5361 21.8288 26.9353 24.3511 26.6416C25.421 26.5172 25.4331 26.5312 25.7874 28.2885C25.9836 29.2631 26.1443 30.5818 26.1443 31.2189C26.1443 31.5705 25.69 31.7106 25.4919 31.4202L25.3643 31.2329C24.0711 29.3362 20.2628 27.1296 19.0697 27.5858C17.2534 28.2807 21.3616 32.396 24.7172 33.243C26.0563 33.5808 26.0622 33.5893 26.3833 35.5847C26.4202 35.8138 26.7567 35.7917 26.7632 35.5597L26.7656 35.4752L26.7723 35.2435C26.8052 34.0891 27.4807 33.05 28.5223 32.5513C29.6675 32.0032 30.6157 31.2111 31.4401 30.1146C32.5781 28.6007 33.3109 26.5903 32.8812 26.1618C32.0904 25.3739 28.5966 28.0991 27.6145 30.2699C27.2892 30.9886 26.9319 31.5766 26.8204 31.5766C26.7086 31.5766 26.4384 30.4568 26.22 29.088L26.0929 28.2922C25.925 27.2408 26.3168 26.1779 27.1268 25.487C28.6273 24.207 29.8467 22.258 30.3585 20.3217C30.9277 18.1687 30.3214 17.3925 28.8649 18.4091ZM24.2397 22.6423C24.2387 22.821 24.4359 23.4789 24.6775 24.1043C24.919 24.7297 25.1214 25.0221 25.127 24.7541C25.1325 24.486 24.9356 23.8281 24.6892 23.2921C24.4431 22.756 24.2406 22.4636 24.2397 22.6423ZM19.3973 33.7387C18.8621 35.1292 22.3415 39.2553 24.7048 40.0327C26.0237 40.4664 26.0876 40.9333 25.2717 44.1704L25.2177 44.3848C25.0736 44.9564 24.2728 44.9868 24.0858 44.4277C23.6223 43.0414 22.9742 42.0301 21.7264 40.7465C19.9098 38.8771 19.2014 38.7117 19.0339 40.1181C18.819 41.9219 21.2114 45.6532 23.2588 46.7087C23.7703 46.9722 24.1885 47.3553 24.1885 47.5599C24.1885 47.7646 23.725 48.8803 23.1584 50.0391L22.888 50.5925C22.6279 51.1247 21.8458 51.045 21.6984 50.4712C21.1504 48.3374 20.2403 46.569 19.1841 45.5866C16.1979 42.8088 17.1794 49.5853 20.1995 52.5953C20.8463 53.2399 20.9519 54.2498 20.4525 55.0142L19.8967 55.8649L19.6632 56.2225C19.2708 56.8233 18.341 56.5962 18.2698 55.8822C18.0387 53.567 17.1461 51.1944 16.2197 50.4322C15.7066 50.0099 15.5922 50.0258 15.189 50.5755C14.229 51.8838 14.8946 55.8152 16.4799 58.2028C16.9509 58.9123 16.8516 59.8563 16.2432 60.4522L15.338 61.3389L14.3324 62.3242C14.0469 62.604 13.5717 62.3448 13.6524 61.9533C14.2342 59.1303 13.6605 55.2499 12.6014 54.8451C11.1463 54.2886 10.3519 59.1547 11.3969 62.2197L11.5923 62.7928C11.8557 63.5652 11.5535 64.4173 10.8623 64.8512C10.2133 65.2586 9.19922 65.8402 8.60856 66.1439C8.27249 66.3166 7.91244 65.957 8.08463 65.6207L8.20565 65.3844C8.93942 63.9506 9.40393 60.72 9.06753 59.3854C8.68321 57.8587 7.64107 58.3003 6.6501 60.4101C5.91764 61.9698 5.77258 62.7262 5.77193 64.9925L5.77161 65.8849C5.77121 67.0016 5.14 68.0223 4.14108 68.5214C1.54274 69.82 0.0664062 71.5039 0.0664062 73.1695C0.0664062 74.2459 1.12093 73.8219 1.43354 72.6195C1.72464 71.5003 2.89586 70.382 5.16692 69.0555L5.54165 68.8367C6.18292 68.4621 6.99471 68.5573 7.53187 69.0702C8.78915 70.2706 11.4602 71.2124 13.608 71.2124C15.5101 71.2124 16.1672 70.6871 15.4071 69.7742C14.7372 68.9701 12.0173 67.8772 10.1791 67.6738C9.59126 67.6088 9.41577 66.8384 9.91744 66.5251L10.6029 66.0972L11.5083 65.5318C12.3171 65.0268 13.3313 64.9825 14.1811 65.4149C16.0118 66.3467 19.3732 66.5884 21.0112 65.9064C21.6831 65.6267 22.2326 65.2667 22.2326 65.1066C22.2326 63.9503 18.6479 62.9117 15.914 63.2762C15.3994 63.3448 15.0918 62.7209 15.4594 62.3544L16.1767 61.6394C17.9523 59.8701 18.0752 59.8058 19.0401 60.1411C21.2622 60.9133 25.7395 60.2103 26.9263 58.9029C27.4632 58.312 27.4544 58.2584 26.7445 57.7626C25.7447 57.0647 22.8546 57.1057 20.6989 57.848C19.766 58.1693 19.0948 58.274 19.2076 58.081C19.3201 57.8877 19.9603 56.9166 20.6302 55.9228L20.6929 55.8296C21.4151 54.7579 22.6227 54.1154 23.915 54.1154C27.1933 54.1154 31.6869 51.7578 30.6897 50.5606C29.9041 49.6168 26.0126 50.3383 23.7937 51.8393C23.469 52.0589 23.0607 51.7135 23.2232 51.3569L23.8003 50.0908L24.3306 48.9271C24.7158 48.0818 25.5073 47.4931 26.4276 47.3673C27.2406 47.2565 28.5435 46.8579 29.3226 46.482C32.2886 45.0509 34.1675 42.2978 32.1784 42.2978C30.9202 42.2978 28.1227 43.4703 26.7415 44.5769C25.2463 45.7744 25.2486 45.7909 26.3057 41.1217C26.4198 40.6172 26.7937 40.38 27.7038 40.2351C30.0322 39.8638 33.5286 36.881 33.7242 35.0987C33.972 32.8417 29.0041 35.4284 27.0734 38.5616L26.9844 38.7059C26.8301 38.9563 26.4448 38.8555 26.4328 38.5616L26.4322 38.5474C26.4263 38.4022 26.2185 38.384 26.1874 38.5259C26.1222 38.8226 25.7158 38.8634 25.593 38.5855L25.3773 38.097C24.7179 36.6045 23.0603 34.7959 21.4591 33.8229C20.2057 33.0613 19.6666 33.0393 19.3973 33.7387Z" fill="#EAEAEA"/>
<path fill-rule="evenodd" clip-rule="evenodd" d="M9.97895 1.20223C9.56725 2.83672 10.7688 6.55469 12.2249 8.15181C12.8632 8.85194 12.8743 8.91431 12.326 8.71678C11.8324 8.53939 11.7826 8.58325 12.0769 8.93672C12.3765 9.29605 12.1878 9.38799 11.0638 9.4299C8.44264 9.52769 4.09382 12.2555 4.78423 13.3688C5.09586 13.8711 7.2349 13.7801 8.97072 13.1908C9.80847 12.9062 11.2082 12.0336 12.0812 11.2512C12.9541 10.4689 13.7629 9.89644 13.8786 9.97896C13.994 10.0615 13.9516 9.96531 13.7837 9.7655C13.594 9.53906 13.6018 9.08066 13.8049 8.5498C14.4396 6.89127 13.2902 2.77921 11.7288 1.12263C10.8258 0.164867 10.2335 0.191833 9.97895 1.20223ZM1.05052 2.97609C0.635557 3.23762 0.662287 3.40656 1.24057 4.17849C2.255 5.53293 4.67731 6.86852 6.80494 7.24669C8.54825 7.55663 9.07796 7.69243 10.9865 8.31913C11.3451 8.43674 11.1759 8.28892 10.6104 7.99002C10.0451 7.69146 9.38992 7.0888 9.15489 6.65085C8.50848 5.44716 6.48353 3.9907 4.4814 3.28928C2.49165 2.5924 1.76473 2.5258 1.05052 2.97609ZM17.7847 5.12487C17.0907 6.18074 17.0911 9.78468 17.7854 11.6775C18.0641 12.4367 18.262 13.0735 18.2251 13.092C18.1883 13.1109 16.9111 13.1547 15.3872 13.1902C13.36 13.2369 12.2008 13.441 11.068 13.9501C8.17306 15.2515 9.43555 16.4705 13.4392 16.2395C15.4315 16.1248 16.2735 15.9072 17.5024 15.1895L18.0077 14.8943C18.6106 14.5422 19.3797 14.6774 19.8263 15.2142C20.252 15.7259 20.9108 16.6274 21.2906 17.2177C21.6703 17.8077 22.0553 18.2168 22.1459 18.1264C22.3288 17.9442 20.2351 14.9975 19.4778 14.3711C19.0564 14.0222 19.0658 13.8688 19.5554 13.1245C19.9727 12.49 20.1138 11.5735 20.1138 9.4991C20.1138 5.40881 18.9879 3.29448 17.7847 5.12487ZM23.4381 12.0024C22.9012 13.1629 22.7239 14.1622 22.7229 16.0316C22.7223 17.4608 22.5942 18.4393 22.4217 18.3334C22.2568 18.2323 22.2131 18.387 22.3249 18.6771C22.4921 19.1115 22.2861 19.078 21.1579 18.4867C19.4012 17.5663 14.7636 17.4413 13.9095 18.2912C13.4271 18.771 13.4274 18.8558 13.9122 19.3389C14.6192 20.0436 17.4529 20.8555 19.2056 20.8555C19.9854 20.8555 21.1328 20.6436 21.7548 20.3844C22.3957 20.1174 23.1345 20.3825 23.4596 20.996L23.5228 21.1154C23.8729 21.7765 24.166 22.2005 24.1741 22.0575C24.182 21.9149 23.957 21.3516 23.6741 20.8061C23.192 19.8776 23.2001 19.77 23.7989 19.1167C25.345 17.4292 26.2715 13.6024 25.6916 11.2993C25.3333 9.87662 24.2674 10.2093 23.4381 12.0024ZM28.8649 18.4091C27.8081 19.1469 26.2715 21.7889 25.6678 23.9051L25.5906 24.1758C25.379 24.9179 24.4518 25.1652 23.8987 24.627C22.4788 23.245 19.8641 22.155 17.9689 22.155C16.7905 22.155 16.6572 22.2333 16.7498 22.8714C16.992 24.5361 21.8288 26.9353 24.3511 26.6416C25.421 26.5172 25.4331 26.5312 25.7874 28.2885C25.9836 29.2631 26.1443 30.5818 26.1443 31.2189C26.1443 31.5705 25.69 31.7106 25.4919 31.4202L25.3643 31.2329C24.0711 29.3362 20.2628 27.1296 19.0697 27.5858C17.2534 28.2807 21.3616 32.396 24.7172 33.243C26.0563 33.5808 26.0622 33.5893 26.3833 35.5847C26.4202 35.8138 26.7567 35.7917 26.7632 35.5597L26.7656 35.4752L26.7723 35.2435C26.8052 34.0891 27.4807 33.05 28.5223 32.5513C29.6675 32.0032 30.6157 31.2111 31.4401 30.1146C32.5781 28.6007 33.3109 26.5903 32.8812 26.1618C32.0904 25.3739 28.5966 28.0991 27.6145 30.2699C27.2892 30.9886 26.9319 31.5766 26.8204 31.5766C26.7086 31.5766 26.4384 30.4568 26.22 29.088L26.0929 28.2922C25.925 27.2408 26.3168 26.1779 27.1268 25.487C28.6273 24.207 29.8467 22.258 30.3585 20.3217C30.9277 18.1687 30.3214 17.3925 28.8649 18.4091ZM24.2397 22.6423C24.2387 22.821 24.4359 23.4789 24.6775 24.1043C24.919 24.7297 25.1214 25.0221 25.127 24.7541C25.1325 24.486 24.9356 23.8281 24.6892 23.2921C24.4431 22.756 24.2406 22.4636 24.2397 22.6423ZM19.3973 33.7387C18.8621 35.1292 22.3415 39.2553 24.7048 40.0327C26.0237 40.4664 26.0876 40.9333 25.2717 44.1704L25.2177 44.3848C25.0736 44.9564 24.2728 44.9868 24.0858 44.4277C23.6223 43.0414 22.9742 42.0301 21.7264 40.7465C19.9098 38.8771 19.2014 38.7117 19.0339 40.1181C18.819 41.9219 21.2114 45.6532 23.2588 46.7087C23.7703 46.9722 24.1885 47.3553 24.1885 47.5599C24.1885 47.7646 23.725 48.8803 23.1584 50.0391L22.888 50.5925C22.6279 51.1247 21.8458 51.045 21.6984 50.4712C21.1504 48.3374 20.2403 46.569 19.1841 45.5866C16.1979 42.8088 17.1794 49.5853 20.1995 52.5953C20.8463 53.2399 20.9519 54.2498 20.4525 55.0142L19.8967 55.8649L19.6632 56.2225C19.2708 56.8233 18.341 56.5962 18.2698 55.8822C18.0387 53.567 17.1461 51.1944 16.2197 50.4322C15.7066 50.0099 15.5922 50.0258 15.189 50.5755C14.229 51.8838 14.8946 55.8152 16.4799 58.2028C16.9509 58.9123 16.8516 59.8563 16.2432 60.4522L15.338 61.3389L14.3324 62.3242C14.0469 62.604 13.5717 62.3448 13.6524 61.9533C14.2342 59.1303 13.6605 55.2499 12.6014 54.8451C11.1463 54.2886 10.3519 59.1547 11.3969 62.2197L11.5923 62.7928C11.8557 63.5652 11.5535 64.4173 10.8623 64.8512C10.2133 65.2586 9.19922 65.8402 8.60856 66.1439C8.27249 66.3166 7.91244 65.957 8.08463 65.6207L8.20565 65.3844C8.93942 63.9506 9.40393 60.72 9.06753 59.3854C8.68321 57.8587 7.64107 58.3003 6.6501 60.4101C5.91764 61.9698 5.77258 62.7262 5.77193 64.9925L5.77161 65.8849C5.77121 67.0016 5.14 68.0223 4.14108 68.5214C1.54274 69.82 0.0664062 71.5039 0.0664062 73.1695C0.0664062 74.2459 1.12093 73.8219 1.43354 72.6195C1.72464 71.5003 2.89586 70.382 5.16692 69.0555L5.54165 68.8367C6.18292 68.4621 6.99471 68.5573 7.53187 69.0702C8.78915 70.2706 11.4602 71.2124 13.608 71.2124C15.5101 71.2124 16.1672 70.6871 15.4071 69.7742C14.7372 68.9701 12.0173 67.8772 10.1791 67.6738C9.59126 67.6088 9.41577 66.8384 9.91744 66.5251L10.6029 66.0972L11.5083 65.5318C12.3171 65.0268 13.3313 64.9825 14.1811 65.4149C16.0118 66.3467 19.3732 66.5884 21.0112 65.9064C21.6831 65.6267 22.2326 65.2667 22.2326 65.1066C22.2326 63.9503 18.6479 62.9117 15.914 63.2762C15.3994 63.3448 15.0918 62.7209 15.4594 62.3544L16.1767 61.6394C17.9523 59.8701 18.0752 59.8058 19.0401 60.1411C21.2622 60.9133 25.7395 60.2103 26.9263 58.9029C27.4632 58.312 27.4544 58.2584 26.7445 57.7626C25.7447 57.0647 22.8546 57.1057 20.6989 57.848C19.766 58.1693 19.0948 58.274 19.2076 58.081C19.3201 57.8877 19.9603 56.9166 20.6302 55.9228L20.6929 55.8296C21.4151 54.7579 22.6227 54.1154 23.915 54.1154C27.1933 54.1154 31.6869 51.7578 30.6897 50.5606C29.9041 49.6168 26.0126 50.3383 23.7937 51.8393C23.469 52.0589 23.0607 51.7135 23.2232 51.3569L23.8003 50.0908L24.3306 48.9271C24.7158 48.0818 25.5073 47.4931 26.4276 47.3673C27.2406 47.2565 28.5435 46.8579 29.3226 46.482C32.2886 45.0509 34.1675 42.2978 32.1784 42.2978C30.9202 42.2978 28.1227 43.4703 26.7415 44.5769C25.2463 45.7744 25.2486 45.7909 26.3057 41.1217C26.4198 40.6172 26.7937 40.38 27.7038 40.2351C30.0322 39.8638 33.5286 36.881 33.7242 35.0987C33.972 32.8417 29.0041 35.4284 27.0734 38.5616L26.9844 38.7059C26.8301 38.9563 26.4448 38.8555 26.4328 38.5616L26.4322 38.5474C26.4263 38.4022 26.2185 38.384 26.1874 38.5259C26.1222 38.8226 25.7158 38.8634 25.593 38.5855L25.3773 38.097C24.7179 36.6045 23.0603 34.7959 21.4591 33.8229C20.2057 33.0613 19.6666 33.0393 19.3973 33.7387Z" fill="#BABABA"/>
</g>
<defs>
<clipPath id="clip0_10133_2122">
<rect width="34" height="74" fill="white"/>
</clipPath>
</defs>
</svg>
