<svg width="35" height="74" viewBox="0 0 35 74" fill="none" xmlns="http://www.w3.org/2000/svg">
<g clip-path="url(#clip0_10133_2112)">
<path fill-rule="evenodd" clip-rule="evenodd" d="M24.1546 1.20222C24.5663 2.83671 23.3647 6.55468 21.9086 8.15181C21.2703 8.85193 21.2593 8.91431 21.8075 8.71678C22.3011 8.53939 22.3509 8.58325 22.0566 8.93673C21.757 9.29605 21.9458 9.38799 23.0697 9.4299C25.6909 9.52769 30.0397 12.2554 29.3493 13.3688C29.0377 13.871 26.8986 13.7801 25.1628 13.1907C24.325 12.9061 22.9253 12.0335 22.0524 11.2512C21.1794 10.4688 20.3707 9.89643 20.2549 9.97895C20.1395 10.0614 20.1819 9.96531 20.3498 9.76551C20.5395 9.53906 20.5317 9.08065 20.3286 8.54979C19.6939 6.89126 20.8433 2.7792 22.4047 1.12262C23.3077 0.164868 23.9 0.191834 24.1546 1.20222ZM33.083 2.97608C33.498 3.23761 33.4712 3.40655 32.8929 4.17848C31.8785 5.53292 29.4562 6.86852 27.3286 7.24668C25.5853 7.55662 25.0556 7.69242 23.147 8.31912C22.7884 8.43673 22.9576 8.28891 23.5231 7.99002C24.0884 7.69145 24.7436 7.08879 24.9786 6.65084C25.625 5.44715 27.65 3.9907 29.6521 3.28927C31.6419 2.5924 32.3688 2.52579 33.083 2.97608ZM16.3488 5.12487C17.0428 6.18074 17.0425 9.78467 16.3481 11.6774C16.0694 12.4367 15.8716 13.0734 15.9084 13.092C15.9452 13.1108 17.2224 13.1547 18.7463 13.1901C20.7736 13.2369 21.9327 13.4409 23.0655 13.95C25.9605 15.2515 24.698 16.4704 20.6943 16.2394C18.702 16.1248 17.86 15.9071 16.6311 15.1894L16.1258 14.8943C15.5229 14.5421 14.7538 14.6773 14.3072 15.2141C13.8815 15.7258 13.2227 16.6273 12.8429 17.2177C12.4632 17.8077 12.0782 18.2167 11.9876 18.1264C11.8047 17.9441 13.8984 14.9974 14.6557 14.371C15.0772 14.0221 15.0677 13.8688 14.5781 13.1244C14.1608 12.49 14.0197 11.5735 14.0197 9.4991C14.0197 5.40881 15.1456 3.29447 16.3488 5.12487ZM10.6954 12.0023C11.2323 13.1628 11.4096 14.1621 11.4106 16.0315C11.4113 17.4607 11.5394 18.4392 11.7118 18.3333C11.8767 18.2323 11.9204 18.3869 11.8086 18.677C11.6414 19.1114 11.8474 19.0779 12.9756 18.4867C14.7323 17.5663 19.3699 17.4412 20.224 18.2911C20.7064 18.7709 20.7061 18.8557 20.2214 19.3388C19.5143 20.0435 16.6806 20.8554 14.9279 20.8554C14.1481 20.8554 13.0007 20.6436 12.3787 20.3843C11.7378 20.1174 10.999 20.3824 10.6739 20.9959L10.6107 21.1153C10.2606 21.7764 9.96755 22.2004 9.9594 22.0575C9.95157 21.9148 10.1765 21.3515 10.4594 20.806C10.9415 19.8775 10.9334 19.7699 10.3346 19.1166C8.7885 17.4292 7.86208 13.6024 8.44199 11.2993C8.80023 9.87662 9.86617 10.2093 10.6954 12.0023ZM5.26863 18.409C6.32544 19.1468 7.86208 21.7888 8.46578 23.9051L8.54295 24.1757C8.75455 24.9178 9.68179 25.1651 10.2348 24.627C11.6548 23.2449 14.2694 22.1549 16.1646 22.1549C17.343 22.1549 17.4763 22.2332 17.3838 22.8713C17.1416 24.536 12.3048 26.9353 9.78239 26.6416C8.71255 26.5171 8.70048 26.5311 8.34615 28.2884C8.14991 29.2631 7.98921 30.5818 7.98921 31.2189C7.98921 31.5704 8.44359 31.7105 8.64161 31.4201L8.76927 31.2328C10.0624 29.3361 13.8707 27.1295 15.0638 27.5857C16.8801 28.2806 12.7719 32.3959 9.41632 33.2429C8.07722 33.5808 8.07135 33.5892 7.75027 35.5846C7.71338 35.8138 7.37689 35.7916 7.3703 35.5597L7.3679 35.4752L7.36128 35.2434C7.32832 34.089 6.65285 33.0499 5.61123 32.5512C4.46608 32.0031 3.51782 31.2111 2.69343 30.1146C1.55546 28.6006 0.822664 26.5902 1.2523 26.1617C2.04311 25.3739 5.53691 28.099 6.51907 30.2699C6.84439 30.9885 7.20165 31.5765 7.31314 31.5765C7.42495 31.5765 7.69518 30.4567 7.91358 29.0879L8.04066 28.2921C8.20853 27.2407 7.81676 26.1778 7.00672 25.4869C5.50626 24.2069 4.2868 22.2579 3.77502 20.3216C3.20587 18.1686 3.81218 17.3924 5.26863 18.409ZM9.89387 22.6422C9.89485 22.8209 9.69764 23.4788 9.45609 24.1042C9.21454 24.7296 9.01211 25.022 9.00657 24.754C9.00103 24.486 9.19792 23.8281 9.44436 23.292C9.69047 22.756 9.8929 22.4636 9.89387 22.6422ZM14.7362 33.7386C15.2714 35.1292 11.792 39.2552 9.42871 40.0326C8.10982 40.4663 8.04593 40.9332 8.86184 44.1703L8.91588 44.3847C9.05997 44.9563 9.86077 44.9867 10.0477 44.4277C10.5112 43.0414 11.1593 42.03 12.4071 40.7464C14.2238 38.877 14.9321 38.7116 15.0997 40.1181C15.3145 41.9218 12.9221 45.6531 10.8747 46.7087C10.3632 46.9721 9.94505 47.3552 9.94505 47.5599C9.94505 47.7645 10.4086 48.8802 10.9751 50.039L11.2455 50.5924C11.5056 51.1246 12.2878 51.0449 12.4351 50.4711C12.9831 48.3373 13.8932 46.569 14.9494 45.5865C17.9356 42.8088 16.9541 49.5852 13.934 52.5952C13.2873 53.2398 13.1816 54.2497 13.681 55.0141L14.2368 55.8649L14.4703 56.2224C14.8627 56.8232 15.7925 56.5961 15.8637 55.8821C16.0948 53.567 16.9874 51.1943 17.9138 50.4322C18.4269 50.0098 18.5413 50.0257 18.9445 50.5754C19.9045 51.8837 19.2389 55.8152 17.6537 58.2027C17.1826 58.9122 17.2819 59.8562 17.8903 60.4521L18.7955 61.3388L19.8011 62.3241C20.0866 62.6039 20.5618 62.3447 20.4812 61.9532C19.8993 59.1303 20.473 55.2499 21.5321 54.8451C22.9872 54.2885 23.7816 59.1546 22.7366 62.2196L22.5412 62.7927C22.2778 63.5651 22.58 64.4172 23.2712 64.8511C23.9202 65.2585 24.9343 65.8401 25.525 66.1439C25.861 66.3165 26.2211 65.957 26.0489 65.6207L25.9279 65.3843C25.1941 63.9506 24.7296 60.7199 25.066 59.3853C25.4503 57.8587 26.4924 58.3002 27.4834 60.41C28.2159 61.9698 28.3609 62.7261 28.3616 64.9925L28.3619 65.8848C28.3623 67.0015 28.9935 68.0222 29.9924 68.5214C32.5908 69.8199 34.0671 71.5038 34.0671 73.1695C34.0671 74.2458 33.0126 73.8218 32.7 72.6194C32.4089 71.5002 31.2376 70.382 28.9666 69.0555L28.5919 68.8366C27.9506 68.462 27.1388 68.5572 26.6016 69.0701C25.3444 70.2705 22.6733 71.2124 20.5255 71.2124C18.6234 71.2124 17.9663 70.687 18.7264 69.7741C19.3963 68.97 22.1162 67.8771 23.9544 67.6737C24.5422 67.6087 24.7177 66.8383 24.2161 66.525L23.5306 66.0971L22.6252 65.5317C21.8164 65.0267 20.8022 64.9824 19.9524 65.4148C18.1218 66.3466 14.7603 66.5883 13.1223 65.9064C12.4505 65.6266 11.9009 65.2667 11.9009 65.1065C11.9009 63.9502 15.4856 62.9116 18.2196 63.2761C18.7341 63.3447 19.0417 62.7208 18.6741 62.3544L17.9568 61.6393C16.1812 59.87 16.0583 59.8057 15.0935 60.141C12.8713 60.9132 8.39407 60.2102 7.20719 58.9028C6.67032 58.3119 6.67912 58.2583 7.38909 57.7625C8.38885 57.0647 11.2789 57.1056 13.4346 57.848C14.3675 58.1693 15.0387 58.2739 14.9259 58.0809C14.8134 57.8876 14.1732 56.9165 13.5034 55.9227L13.4406 55.8295C12.7185 54.7579 11.5108 54.1154 10.2185 54.1154C6.94023 54.1154 2.44667 51.7577 3.44382 50.5605C4.22942 49.6167 8.1209 50.3383 10.3398 51.8392C10.6645 52.0588 11.0729 51.7134 10.9103 51.3568L10.3333 50.0907L9.80296 48.927C9.41778 48.0818 8.62622 47.493 7.70594 47.3672C6.89296 47.2564 5.59004 46.8578 4.81096 46.4819C1.84492 45.0508 -0.0339949 42.2977 1.9551 42.2977C3.21336 42.2977 6.01087 43.4702 7.39202 44.5768C8.88727 45.7743 8.88499 45.7909 7.82785 41.1216C7.71376 40.6171 7.33987 40.3799 6.42975 40.235C4.10132 39.8637 0.604913 36.8809 0.40933 35.0986C0.161588 32.8416 5.12943 35.4284 7.06018 38.5616L7.1491 38.7058C7.30345 38.9562 7.68873 38.8555 7.70072 38.5616L7.7013 38.5473C7.70723 38.4021 7.91508 38.3839 7.94618 38.5258C8.01129 38.8226 8.41778 38.8633 8.54052 38.5854L8.75622 38.097C9.41567 36.6045 11.0732 34.7958 12.6744 33.8228C13.9278 33.0613 14.4669 33.0392 14.7362 33.7386Z" fill="#EAEAEA"/>
<path fill-rule="evenodd" clip-rule="evenodd" d="M24.1546 1.20222C24.5663 2.83671 23.3647 6.55468 21.9086 8.15181C21.2703 8.85193 21.2593 8.91431 21.8075 8.71678C22.3011 8.53939 22.3509 8.58325 22.0566 8.93673C21.757 9.29605 21.9458 9.38799 23.0697 9.4299C25.6909 9.52769 30.0397 12.2554 29.3493 13.3688C29.0377 13.871 26.8986 13.7801 25.1628 13.1907C24.325 12.9061 22.9253 12.0335 22.0524 11.2512C21.1794 10.4688 20.3707 9.89643 20.2549 9.97895C20.1395 10.0614 20.1819 9.96531 20.3498 9.76551C20.5395 9.53906 20.5317 9.08065 20.3286 8.54979C19.6939 6.89126 20.8433 2.7792 22.4047 1.12262C23.3077 0.164868 23.9 0.191834 24.1546 1.20222ZM33.083 2.97608C33.498 3.23761 33.4712 3.40655 32.8929 4.17848C31.8785 5.53292 29.4562 6.86852 27.3286 7.24668C25.5853 7.55662 25.0556 7.69242 23.147 8.31912C22.7884 8.43673 22.9576 8.28891 23.5231 7.99002C24.0884 7.69145 24.7436 7.08879 24.9786 6.65084C25.625 5.44715 27.65 3.9907 29.6521 3.28927C31.6419 2.5924 32.3688 2.52579 33.083 2.97608ZM16.3488 5.12487C17.0428 6.18074 17.0425 9.78467 16.3481 11.6774C16.0694 12.4367 15.8716 13.0734 15.9084 13.092C15.9452 13.1108 17.2224 13.1547 18.7463 13.1901C20.7736 13.2369 21.9327 13.4409 23.0655 13.95C25.9605 15.2515 24.698 16.4704 20.6943 16.2394C18.702 16.1248 17.86 15.9071 16.6311 15.1894L16.1258 14.8943C15.5229 14.5421 14.7538 14.6773 14.3072 15.2141C13.8815 15.7258 13.2227 16.6273 12.8429 17.2177C12.4632 17.8077 12.0782 18.2167 11.9876 18.1264C11.8047 17.9441 13.8984 14.9974 14.6557 14.371C15.0772 14.0221 15.0677 13.8688 14.5781 13.1244C14.1608 12.49 14.0197 11.5735 14.0197 9.4991C14.0197 5.40881 15.1456 3.29447 16.3488 5.12487ZM10.6954 12.0023C11.2323 13.1628 11.4096 14.1621 11.4106 16.0315C11.4113 17.4607 11.5394 18.4392 11.7118 18.3333C11.8767 18.2323 11.9204 18.3869 11.8086 18.677C11.6414 19.1114 11.8474 19.0779 12.9756 18.4867C14.7323 17.5663 19.3699 17.4412 20.224 18.2911C20.7064 18.7709 20.7061 18.8557 20.2214 19.3388C19.5143 20.0435 16.6806 20.8554 14.9279 20.8554C14.1481 20.8554 13.0007 20.6436 12.3787 20.3843C11.7378 20.1174 10.999 20.3824 10.6739 20.9959L10.6107 21.1153C10.2606 21.7764 9.96755 22.2004 9.9594 22.0575C9.95157 21.9148 10.1765 21.3515 10.4594 20.806C10.9415 19.8775 10.9334 19.7699 10.3346 19.1166C8.7885 17.4292 7.86208 13.6024 8.44199 11.2993C8.80023 9.87662 9.86617 10.2093 10.6954 12.0023ZM5.26863 18.409C6.32544 19.1468 7.86208 21.7888 8.46578 23.9051L8.54295 24.1757C8.75455 24.9178 9.68179 25.1651 10.2348 24.627C11.6548 23.2449 14.2694 22.1549 16.1646 22.1549C17.343 22.1549 17.4763 22.2332 17.3838 22.8713C17.1416 24.536 12.3048 26.9353 9.78239 26.6416C8.71255 26.5171 8.70048 26.5311 8.34615 28.2884C8.14991 29.2631 7.98921 30.5818 7.98921 31.2189C7.98921 31.5704 8.44359 31.7105 8.64161 31.4201L8.76927 31.2328C10.0624 29.3361 13.8707 27.1295 15.0638 27.5857C16.8801 28.2806 12.7719 32.3959 9.41632 33.2429C8.07722 33.5808 8.07135 33.5892 7.75027 35.5846C7.71338 35.8138 7.37689 35.7916 7.3703 35.5597L7.3679 35.4752L7.36128 35.2434C7.32832 34.089 6.65285 33.0499 5.61123 32.5512C4.46608 32.0031 3.51782 31.2111 2.69343 30.1146C1.55546 28.6006 0.822664 26.5902 1.2523 26.1617C2.04311 25.3739 5.53691 28.099 6.51907 30.2699C6.84439 30.9885 7.20165 31.5765 7.31314 31.5765C7.42495 31.5765 7.69518 30.4567 7.91358 29.0879L8.04066 28.2921C8.20853 27.2407 7.81676 26.1778 7.00672 25.4869C5.50626 24.2069 4.2868 22.2579 3.77502 20.3216C3.20587 18.1686 3.81218 17.3924 5.26863 18.409ZM9.89387 22.6422C9.89485 22.8209 9.69764 23.4788 9.45609 24.1042C9.21454 24.7296 9.01211 25.022 9.00657 24.754C9.00103 24.486 9.19792 23.8281 9.44436 23.292C9.69047 22.756 9.8929 22.4636 9.89387 22.6422ZM14.7362 33.7386C15.2714 35.1292 11.792 39.2552 9.42871 40.0326C8.10982 40.4663 8.04593 40.9332 8.86184 44.1703L8.91588 44.3847C9.05997 44.9563 9.86077 44.9867 10.0477 44.4277C10.5112 43.0414 11.1593 42.03 12.4071 40.7464C14.2238 38.877 14.9321 38.7116 15.0997 40.1181C15.3145 41.9218 12.9221 45.6531 10.8747 46.7087C10.3632 46.9721 9.94505 47.3552 9.94505 47.5599C9.94505 47.7645 10.4086 48.8802 10.9751 50.039L11.2455 50.5924C11.5056 51.1246 12.2878 51.0449 12.4351 50.4711C12.9831 48.3373 13.8932 46.569 14.9494 45.5865C17.9356 42.8088 16.9541 49.5852 13.934 52.5952C13.2873 53.2398 13.1816 54.2497 13.681 55.0141L14.2368 55.8649L14.4703 56.2224C14.8627 56.8232 15.7925 56.5961 15.8637 55.8821C16.0948 53.567 16.9874 51.1943 17.9138 50.4322C18.4269 50.0098 18.5413 50.0257 18.9445 50.5754C19.9045 51.8837 19.2389 55.8152 17.6537 58.2027C17.1826 58.9122 17.2819 59.8562 17.8903 60.4521L18.7955 61.3388L19.8011 62.3241C20.0866 62.6039 20.5618 62.3447 20.4812 61.9532C19.8993 59.1303 20.473 55.2499 21.5321 54.8451C22.9872 54.2885 23.7816 59.1546 22.7366 62.2196L22.5412 62.7927C22.2778 63.5651 22.58 64.4172 23.2712 64.8511C23.9202 65.2585 24.9343 65.8401 25.525 66.1439C25.861 66.3165 26.2211 65.957 26.0489 65.6207L25.9279 65.3843C25.1941 63.9506 24.7296 60.7199 25.066 59.3853C25.4503 57.8587 26.4924 58.3002 27.4834 60.41C28.2159 61.9698 28.3609 62.7261 28.3616 64.9925L28.3619 65.8848C28.3623 67.0015 28.9935 68.0222 29.9924 68.5214C32.5908 69.8199 34.0671 71.5038 34.0671 73.1695C34.0671 74.2458 33.0126 73.8218 32.7 72.6194C32.4089 71.5002 31.2376 70.382 28.9666 69.0555L28.5919 68.8366C27.9506 68.462 27.1388 68.5572 26.6016 69.0701C25.3444 70.2705 22.6733 71.2124 20.5255 71.2124C18.6234 71.2124 17.9663 70.687 18.7264 69.7741C19.3963 68.97 22.1162 67.8771 23.9544 67.6737C24.5422 67.6087 24.7177 66.8383 24.2161 66.525L23.5306 66.0971L22.6252 65.5317C21.8164 65.0267 20.8022 64.9824 19.9524 65.4148C18.1218 66.3466 14.7603 66.5883 13.1223 65.9064C12.4505 65.6266 11.9009 65.2667 11.9009 65.1065C11.9009 63.9502 15.4856 62.9116 18.2196 63.2761C18.7341 63.3447 19.0417 62.7208 18.6741 62.3544L17.9568 61.6393C16.1812 59.87 16.0583 59.8057 15.0935 60.141C12.8713 60.9132 8.39407 60.2102 7.20719 58.9028C6.67032 58.3119 6.67912 58.2583 7.38909 57.7625C8.38885 57.0647 11.2789 57.1056 13.4346 57.848C14.3675 58.1693 15.0387 58.2739 14.9259 58.0809C14.8134 57.8876 14.1732 56.9165 13.5034 55.9227L13.4406 55.8295C12.7185 54.7579 11.5108 54.1154 10.2185 54.1154C6.94023 54.1154 2.44667 51.7577 3.44382 50.5605C4.22942 49.6167 8.1209 50.3383 10.3398 51.8392C10.6645 52.0588 11.0729 51.7134 10.9103 51.3568L10.3333 50.0907L9.80296 48.927C9.41778 48.0818 8.62622 47.493 7.70594 47.3672C6.89296 47.2564 5.59004 46.8578 4.81096 46.4819C1.84492 45.0508 -0.0339949 42.2977 1.9551 42.2977C3.21336 42.2977 6.01087 43.4702 7.39202 44.5768C8.88727 45.7743 8.88499 45.7909 7.82785 41.1216C7.71376 40.6171 7.33987 40.3799 6.42975 40.235C4.10132 39.8637 0.604913 36.8809 0.40933 35.0986C0.161588 32.8416 5.12943 35.4284 7.06018 38.5616L7.1491 38.7058C7.30345 38.9562 7.68873 38.8555 7.70072 38.5616L7.7013 38.5473C7.70723 38.4021 7.91508 38.3839 7.94618 38.5258C8.01129 38.8226 8.41778 38.8633 8.54052 38.5854L8.75622 38.097C9.41567 36.6045 11.0732 34.7958 12.6744 33.8228C13.9278 33.0613 14.4669 33.0392 14.7362 33.7386Z" fill="#BABABA"/>
</g>
<defs>
<clipPath id="clip0_10133_2112">
<rect width="35" height="74" fill="white"/>
</clipPath>
</defs>
</svg>
